<svg xmlns="http://www.w3.org/2000/svg" xmlns:xlink="http://www.w3.org/1999/xlink" viewBox="0 0 20 20"><g fill="none"><path d="M5.25 4a1.25 1.25 0 1 1-2.5 0a1.25 1.25 0 0 1 2.5 0zm12 12a1.25 1.25 0 1 1-2.5 0a1.25 1.25 0 0 1 2.5 0zM16 11.25a1.25 1.25 0 1 0 0-2.5a1.25 1.25 0 0 0 0 2.5zM17.25 4a1.25 1.25 0 1 1-2.5 0a1.25 1.25 0 0 1 2.5 0zM10 17.25a1.25 1.25 0 1 0 0-2.5a1.25 1.25 0 0 0 0 2.5zM11.25 10a1.25 1.25 0 1 1-2.5 0a1.25 1.25 0 0 1 2.5 0zM10 5.25a1.25 1.25 0 1 0 0-2.5a1.25 1.25 0 0 0 0 2.5zM5.25 16a1.25 1.25 0 1 1-2.5 0a1.25 1.25 0 0 1 2.5 0zM4 11.25a1.25 1.25 0 1 0 0-2.5a1.25 1.25 0 0 0 0 2.5z" fill="currentColor"></path></g></svg>