<svg data-v-d25fac1c="" width="77" height="28" fill="none" xmlns="http://www.w3.org/2000/svg" class="nav-logo"><path data-v-d25fac1c="" d="M36.186 19.267c0-.326.266-.591.591-.591h5.825c.335 0 .606.272.606.606v3.41a.608.608 0 01-.607.607h-6.416v-4.032h.001zm6.416-2.801h-5.825a2.804 2.804 0 00-2.8 2.8V28h2.209v-2.492h6.416a2.819 2.819 0 002.816-2.816v-3.41a2.819 2.819 0 00-2.816-2.816M71.059 25.183a.608.608 0 01-.606.607h-6.25a.607.607 0 01-.607-.606v-5.902c0-.335.273-.607.607-.607h6.25c.334 0 .606.272.606.606v5.902zm-.606-8.717h-6.25a2.819 2.819 0 00-2.816 2.816v5.902A2.819 2.819 0 0064.203 28h6.25a2.819 2.819 0 002.816-2.816v-5.902a2.82 2.82 0 00-2.816-2.815M57.039 22.233a.608.608 0 01-.608.607h-6.736v-3.574c0-.326.265-.591.59-.591h6.146c.335 0 .606.272.606.606v2.952h.002zm-.608-5.768h-6.145a2.804 2.804 0 00-2.8 2.8V28h2.209v-2.951h4.209l1.997 2.951h2.52l-2.077-2.951h.087a2.819 2.819 0 002.816-2.816v-2.951a2.82 2.82 0 00-2.816-2.816M47.548 5.55h-2.21v7.581h2.21V5.549zM47.548 1.759h-2.21V3.93h2.21V1.759zM36.822 3.932h6.572V1.759h-6.572c-1.531 0-2.776 1.228-2.776 2.737v8.617h2.204V8.992h5.54V6.82h-5.54V4.496a.57.57 0 01.572-.564z" fill="#000" style="--darkreader-inline-fill: #000000;" data-darkreader-inline-fill=""></path><path data-v-d25fac1c="" fill-rule="evenodd" clip-rule="evenodd" d="M52.334 9.433L49.175 5.55h2.478l1.92 2.36 1.919-2.36h2.477l-3.158 3.883 3.007 3.698h-2.477l-1.769-2.175-1.768 2.175h-2.477l3.007-3.698z" fill="#000" style="--darkreader-inline-fill: #e8e6e3;" data-darkreader-inline-fill=""></path><path data-v-d25fac1c="" d="M61.891 1.666h-2.21v11.54h2.21V1.666zM66.76 11.003a.605.605 0 01-.604-.605V4.515c0-.334.271-.604.604-.604h6.231c.334 0 .605.27.605.604V7.5h-.002v2.938a.605.605 0 01-.56.565h-1.793v.002h-4.48zm9.037-.605V4.514a2.81 2.81 0 00-2.806-2.806H66.76a2.807 2.807 0 00-2.807 2.807v5.883a2.81 2.81 0 002.807 2.807h7.516l.577.761c.11.147.32.176.466.064l1.225-.927a.333.333 0 00.064-.467l-.813-1.072v-1.166h.002z" fill="#3CBD0C" style="--darkreader-inline-fill: #79f44b;" data-darkreader-inline-fill=""></path><path data-v-d25fac1c="" d="M12.598 10.284L3.309.994.965 3.337l9.29 9.29a4.177 4.177 0 005.902 0l3.887-3.887-2.343-2.343-3.888 3.887a.86.86 0 01-1.215 0z" fill="#000" style="--darkreader-inline-fill: #e8e6e3;" data-darkreader-inline-fill=""></path><path data-v-d25fac1c="" d="M1.816 6.516A13.109 13.109 0 000 13.186h3.313c0-1.51.341-2.941.95-4.223L1.816 6.516zM13.186 0c-2.449 0-4.743.672-6.711 1.84l2.444 2.445a9.81 9.81 0 014.267-.971c5.444 0 9.873 4.429 9.873 9.872h3.313C26.37 5.914 20.457 0 13.186 0z" fill="#3CBD0C" style="--darkreader-inline-fill: #79f44b;" data-darkreader-inline-fill=""></path></svg>